<?xml version="1.0" encoding="utf-8"?>
<!-- Generator: Adobe Illustrator 24.1.1, SVG Export Plug-In . SVG Version: 6.00 Build 0)  -->
<svg version="1.1" id="icon" xmlns="http://www.w3.org/2000/svg" xmlns:xlink="http://www.w3.org/1999/xlink" x="0px" y="0px"
	 viewBox="0 0 50 50" style="enable-background:new 0 0 50 50;" xml:space="preserve">
<path d="M41,4H9C6.2,4,4,6.2,4,9v32c0,2.8,2.2,5,5,5h32c2.8,0,5-2.2,5-5V9C46,6.2,43.8,4,41,4z M21,36c0,1.1-0.9,2-2,2h-7
	c-1.1,0-2-0.9-2-2V12c0-1.1,0.9-2,2-2h7c1.1,0,2,0.9,2,2V36z M40,24c0,1.1-0.9,2-2,2h-7c-1.1,0-2-0.9-2-2V12c0-1.1,0.9-2,2-2h7
	c1.1,0,2,0.9,2,2V24z"/>
</svg>
