<svg width="512" height="512" xmlns="http://www.w3.org/2000/svg" preserveAspectRatio="xMidYMid meet">

 <g>
  <title>background</title>
  <rect fill="none" id="canvas_background" height="402" width="582" y="-1" x="-1"/>
 </g>
 <g>
  <title>Layer 1</title>
  <g id="svg_1" fill="#000000" transform="translate(0,512) scale(0.10000000149011612,-0.10000000149011612) ">
   <path fill="#f7f718" id="svg_2" d="m2507,4999c-96,-15 -186,-79 -230,-164c-11,-22 -116,-337 -233,-699c-117,-363 -221,-671 -232,-685c-10,-14 -34,-35 -53,-46c-33,-19 -57,-20 -779,-25l-745,-5l-47,-23c-60,-30 -120,-90 -150,-150c-19,-39 -23,-63 -23,-142c0,-81 4,-102 25,-143c13,-27 42,-65 65,-85c22,-20 290,-218 597,-440c498,-360 558,-407 577,-445c12,-24 21,-57 21,-74c0,-17 -98,-327 -217,-690c-216,-655 -217,-658 -217,-748c-1,-79 2,-96 26,-140c76,-143 243,-212 395,-161c33,11 225,145 618,432c314,229 581,421 595,426c14,5 48,8 76,6c60,-5 9,29 729,-497c326,-238 495,-356 528,-367c64,-21 155,-20 219,2c65,24 141,92 176,158c24,45 27,62 26,141c0,90 -1,92 -217,747c-119,362 -217,672 -217,690c0,17 9,51 21,74c18,39 79,86 571,441c303,219 572,417 598,440c30,27 56,64 74,103c25,55 28,71 24,143c-5,128 -67,225 -177,279l-46,23l-745,5c-722,5 -746,6 -779,25c-19,11 -43,32 -53,46c-11,14 -115,322 -232,685c-117,362 -222,678 -234,700c-58,114 -201,184 -335,163z"/>
  </g>
 </g>
</svg>