<svg version="1.0" xmlns="http://www.w3.org/2000/svg"
 width="15.000000pt" height="15.000000pt" viewBox="0 0 512.000000 512.000000"
 preserveAspectRatio="xMidYMid meet">

<g transform="translate(0.000000,512.000000) scale(0.100000,-0.100000)"
fill="#000000" stroke="none">
<path d="M2417 4986 c-82 -34 -134 -72 -177 -131 -20 -27 -164 -317 -320 -643
-225 -471 -287 -593 -304 -597 -11 -3 -309 -43 -661 -90 -352 -46 -660 -91
-685 -100 -186 -65 -304 -277 -260 -466 29 -126 37 -135 561 -635 269 -256
489 -471 489 -478 0 -7 -52 -291 -115 -632 -63 -340 -118 -639 -121 -664 -14
-105 36 -241 118 -323 102 -102 270 -144 398 -100 31 10 318 159 638 331 l583
313 560 -301 c308 -166 585 -313 615 -327 202 -92 464 22 539 237 37 104 35
121 -94 816 -67 358 -121 654 -121 657 0 3 220 216 490 472 477 454 490 468
527 542 36 74 38 81 38 178 0 92 -3 106 -32 167 -55 116 -157 199 -278 226
-27 7 -327 48 -665 92 -338 44 -624 82 -635 85 -16 3 -84 136 -305 600 -157
328 -301 617 -320 642 -76 101 -186 153 -322 153 -64 0 -96 -6 -141 -24z m171
-334 c7 -5 150 -298 317 -652 168 -354 314 -654 326 -666 12 -13 40 -30 63
-39 23 -8 352 -55 731 -105 380 -50 698 -93 707 -96 22 -6 34 -48 22 -73 -5
-10 -239 -237 -521 -506 -294 -280 -518 -501 -527 -520 -9 -18 -16 -48 -16
-67 -1 -18 56 -342 126 -720 76 -411 124 -696 120 -711 -11 -46 -39 -43 -149
16 -56 30 -343 186 -637 347 l-535 291 -60 -4 c-57 -3 -89 -19 -645 -322 -734
-398 -684 -374 -710 -350 -11 10 -20 25 -20 34 0 9 59 330 132 713 123 654
131 699 119 740 -15 52 -40 77 -643 652 -247 235 -428 414 -428 425 0 9 6 25
13 35 13 18 -33 11 1060 156 209 28 391 57 405 64 15 8 37 25 50 38 12 14 159
314 327 668 167 354 310 647 317 652 7 4 20 8 28 8 8 0 21 -4 28 -8z"/>
</g>
</svg>
