<?xml version='1.0' encoding='iso-8859-1'?>
<svg version="1.1" xmlns="http://www.w3.org/2000/svg" viewBox="0 0 294.08 294.08" xmlns:xlink="http://www.w3.org/1999/xlink" enable-background="new 0 0 294.08 294.08">
  <g>
    <g>
      <path d="M274.939,0H170.532c-5.22,0-10.441,1.74-13.921,5.22L5.22,156.611C1.74,160.091,0,165.311,0,170.532    c0,5.22,1.74,10.441,5.22,13.921L109.627,288.86c3.48,3.48,8.701,5.22,13.921,5.22c3.48,0,8.701-1.74,13.921-5.22L288.86,137.469    c3.48-3.48,5.22-8.701,5.22-13.921V19.141C294.08,8.701,285.38,0,274.939,0z M274.939,127.029L123.548,278.419h-1.74    L15.66,172.272c0-1.74,0-3.48,0-3.48l153.13-153.13v3.48h104.407c1.74,0,1.74,0,1.74,1.74L274.939,127.029L274.939,127.029z"/>
      <path d="m212.295,55.684c-6.96,6.96-6.96,17.401 0,24.362 3.48,3.48 6.96,5.22 12.181,5.22 5.22,0 8.701-1.74 12.181-5.22 6.96-6.96 6.96-17.401 0-24.362-6.961-6.961-17.402-6.961-24.362,0z"/>
    </g>
  </g>
</svg>
