<?xml version="1.0" encoding="utf-8"?>
<!-- Generator: Adobe Illustrator 24.1.1, SVG Export Plug-In . SVG Version: 6.00 Build 0)  -->
<svg version="1.1" id="icon" xmlns="http://www.w3.org/2000/svg" xmlns:xlink="http://www.w3.org/1999/xlink" x="0px" y="0px"
	 viewBox="0 0 50 50" style="enable-background:new 0 0 50 50;" xml:space="preserve">
<path d="M41.5,8.4h-29c-2.5,0-4.5,2-4.5,4.5v28.6c0,2.5,2,4.5,4.5,4.5h29c2.5,0,4.5-2,4.5-4.5V12.9C46,10.4,44,8.4,41.5,8.4z
	 M23.3,37.1c0,1-0.8,1.8-1.8,1.8h-6.3c-1,0-1.8-0.8-1.8-1.8V15.6c0-1,0.8-1.8,1.8-1.8h6.3c1,0,1.8,0.8,1.8,1.8V37.1z M40.6,26.3
	c0,1-0.8,1.8-1.8,1.8h-6.3c-1,0-1.8-0.8-1.8-1.8V15.6c0-1,0.8-1.8,1.8-1.8h6.3c1,0,1.8,0.8,1.8,1.8V26.3z"/>
<polyline points="2.6,46 4.7,46 4.7,37.2 2.6,37.2 "/>
<polyline points="2.6,33.3 4.7,33.3 4.7,25 2.6,25 "/>
<polyline points="2.6,21.1 4.7,21.1 4.7,12.8 2.6,12.8 "/>
<path d="M126.1,9"/>
<path d="M4.7,11.1c0.5-0.3,0.3-0.8,1-1.7C5.9,9.2,6.3,8.9,7,8.3c0.8-0.7,1.2-1,1.6-1.2c0.8-0.5,1.2-0.4,1.3-0.7
	c0.2-0.5-0.2-1.5-0.8-1.6c-0.2-0.1-0.4,0-0.9,0.2C7.3,5.4,6.9,5.6,6.1,6.1C5.6,6.5,5.1,6.9,4.5,7.6c-0.6,0.7-0.9,1.3-1.2,2
	C2.9,10.5,3,10.7,3,10.8C3.3,11.2,4.2,11.4,4.7,11.1z"/>
<polyline points="13.5,4.6 13.5,6.6 21.7,6.6 21.7,4.6 "/>
<polyline points="25,4.6 25,6.6 33.3,6.6 33.3,4.6 "/>
<polyline points="36.4,4.6 36.4,6.6 44.7,6.6 44.7,4.6 "/>
</svg>
