<?xml version="1.0" encoding="utf-8"?>
<!-- Generator: Adobe Illustrator 24.1.1, SVG Export Plug-In . SVG Version: 6.00 Build 0)  -->
<svg version="1.1" id="Слой_1" focusable="false"
	 xmlns="http://www.w3.org/2000/svg" xmlns:xlink="http://www.w3.org/1999/xlink" x="0px" y="0px" viewBox="0 0 19.9 21.2"
	 style="enable-background:new 0 0 19.9 21.2;" xml:space="preserve">
<path d="M13,9.8c0.6-0.7,1-1.6,1-2.6c0-2.2-1.8-4-4-4c-2.2,0-4,1.8-4,4c0,1,0.4,1.9,1,2.6C4,11,2,13.9,2,17.2c0,0.6,0.4,1,1,1h14
	c0.6,0,1-0.4,1-1C18,13.9,16,11,13,9.8z M10,5.2c1.1,0,2,0.9,2,2c0,1.1-0.9,2-2,2c-1.1,0-2-0.9-2-2C8,6.1,8.9,5.2,10,5.2z M4.1,16.2
	c0.5-2.8,2.9-5,5.9-5s5.4,2.2,5.9,5H4.1z"/>
</svg>
